<svg width="26" height="27" viewBox="0 0 26 27" fill="none" xmlns="http://www.w3.org/2000/svg">
<g clip-path="url(#clip0_14365_232)">
<path d="M24.0968 26.3974C25.033 26.3974 25.7999 25.62 25.7999 24.6682V7.0303C25.7999 6.07847 25.033 5.30115 24.0968 5.30115H7.47388L14.1451 26.3974H24.0968Z" fill="#DBDBDB"/>
<path d="M24.0968 6.09434C24.3456 6.09434 24.5816 6.19481 24.7586 6.3746C24.933 6.55174 25.0304 6.78441 25.0304 7.0303V24.6682C25.0304 24.9141 24.9355 25.1468 24.7586 25.3239C24.5816 25.5037 24.3456 25.6042 24.0968 25.6042H14.7043L8.53317 6.09434H24.0968ZM24.0968 5.30115H7.47388L14.1451 26.3974H24.0968C25.033 26.3974 25.7999 25.62 25.7999 24.6682V7.0303C25.7999 6.07847 25.033 5.30115 24.0968 5.30115Z" fill="#DCDCDC"/>
<path d="M12.5704 21.4135L14.1453 26.3974L18.5235 21.4135H12.5704Z" fill="#4352B8"/>
<path d="M24.2098 12.5906V11.5568H19.375V9.88577H17.8053V11.5568H14.7197V12.5906H20.86C20.5317 13.783 19.8059 14.9093 19.098 15.7845C17.8437 14.2536 17.8386 13.7565 17.8386 13.7565H16.5357C16.5357 13.7565 16.5895 14.5021 18.349 16.6279C17.7771 17.2307 17.3436 17.5876 17.3436 17.5876L17.7437 18.8779C17.7437 18.8779 18.349 18.3412 19.1057 17.5136C19.8649 18.3623 20.8446 19.3829 22.1117 20.5991L22.935 19.7504C21.5782 18.4813 20.583 17.474 19.852 16.6649C20.8318 15.4698 21.827 13.9654 22.0373 12.5879H24.2072V12.5906H24.2098Z" fill="#607988"/>
<path d="M1.90303 0.00289917C0.966848 0.00289917 0.199951 0.793446 0.199951 1.76114V19.6608C0.199951 20.6258 0.966848 21.4164 1.90303 21.4164H18.526L11.8547 0.00289917H1.90303Z" fill="#4285F4"/>
<path d="M13.9042 5.30115H24.097C25.0332 5.30115 25.8001 6.07847 25.8001 7.0303V17.6115L13.9042 5.30115Z" fill="url(#paint0_linear_14365_232)"/>
<path d="M9.72586 11.3876C9.66174 12.1887 8.99744 13.3758 7.38926 13.3758C5.99654 13.3758 4.86799 12.1887 4.86799 10.7266C4.86799 9.26445 5.99654 8.07731 7.38926 8.07731C8.18181 8.07731 8.71017 8.4316 9.01283 8.7198L10.0696 7.67279C9.37448 7.01179 8.46908 6.59933 7.38926 6.59933C5.18091 6.59933 3.38806 8.44747 3.38806 10.7239C3.38806 13.0004 5.18091 14.8485 7.38926 14.8485C9.70278 14.8485 11.2314 13.1749 11.2314 10.8138C11.2314 10.4754 11.1904 10.2269 11.1365 9.97304H7.39183V11.3849L9.72586 11.3876Z" fill="#EEEEEE"/>
<path d="M24.0969 5.30141H13.5065L11.8547 0.00289917H1.90303C0.966848 0.00289917 0.199951 0.793445 0.199951 1.76114V19.6608C0.199951 20.6258 0.966848 21.4164 1.90303 21.4164H12.5703L14.1452 26.3976H24.0969C25.0331 26.3976 25.8 25.6203 25.8 24.6685V7.03056C25.8 6.07874 25.0331 5.30141 24.0969 5.30141Z" fill="url(#paint1_radial_14365_232)"/>
</g>
<defs>
<linearGradient id="paint0_linear_14365_232" x1="13.9042" y1="11.4563" x2="25.8001" y2="11.4563" gradientUnits="userSpaceOnUse">
<stop stop-color="white" stop-opacity="0.2"/>
<stop offset="1" stop-color="white" stop-opacity="0.02"/>
</linearGradient>
<radialGradient id="paint1_radial_14365_232" cx="0" cy="0" r="1" gradientUnits="userSpaceOnUse" gradientTransform="translate(1.87245 0.51493) scale(35.8639 36.9698)">
<stop stop-color="white" stop-opacity="0.1"/>
<stop offset="1" stop-color="white" stop-opacity="0"/>
</radialGradient>
<clipPath id="clip0_14365_232">
<rect width="25.6" height="26.4" fill="white" transform="translate(0.199951)"/>
</clipPath>
</defs>
</svg>
