<svg width="34" height="28" viewBox="0 0 34 28" fill="none" xmlns="http://www.w3.org/2000/svg">
<g clip-path="url(#clip0_14365_291)">
<path d="M25.6101 18.9473V9.09718L26.6261 6.97063L31.7074 2.92649C31.8576 2.79801 32.0415 2.71573 32.237 2.6895C32.4325 2.66326 32.6314 2.69418 32.8099 2.77854C32.9884 2.86291 33.139 2.99716 33.2436 3.16525C33.3482 3.33334 33.4025 3.52816 33.3999 3.72641V23.0619C33.3991 23.2614 33.3418 23.4566 33.2347 23.6246C33.1276 23.7925 32.975 23.9263 32.795 24.0103C32.6149 24.0942 32.4148 24.1248 32.218 24.0985C32.0212 24.0723 31.836 23.9901 31.684 23.8618L25.6101 18.9473Z" fill="#00AC47"/>
<path d="M8.79934 0L0.599976 8.24284H8.79934V0Z" fill="#EA4335"/>
<path d="M8.79934 8.24284H0.599976V18.9572H8.79934V8.24284Z" fill="#2684FC"/>
<path d="M0.599976 18.9572V24.4528C0.602246 25.1807 0.890928 25.8781 1.403 26.3928C1.91506 26.9076 2.60893 27.1977 3.3331 27.2H8.79934V18.9572H0.599976Z" fill="#0066DA"/>
<path d="M26.6347 2.72C26.6373 2.00315 26.3573 1.31445 25.8559 0.804673C25.3545 0.294891 24.6726 0.0055547 23.9594 0L8.79932 0V8.24284H18.8449V13.6L26.6347 13.3527V2.72Z" fill="#FFBA00"/>
<path d="M18.845 18.9572H8.79932V27.2H23.9594C24.6715 27.1951 25.3527 26.907 25.854 26.3987C26.3553 25.8904 26.636 25.2032 26.6347 24.4874V13.6H18.845V18.9572Z" fill="#00AC47"/>
<path d="M26.6347 7.00647V19.7818L18.845 13.6L26.6347 7.00647Z" fill="#00832D"/>
</g>
<defs>
<clipPath id="clip0_14365_291">
<rect width="32.8" height="27.2" fill="white" transform="translate(0.599976)"/>
</clipPath>
</defs>
</svg>
