<svg width="24" height="32" viewBox="0 0 24 32" fill="none" xmlns="http://www.w3.org/2000/svg">
<g clip-path="url(#clip0_14365_303)">
<path d="M15 0H2.25031C1.04956 0 0 1.06624 0 2.28608V29.7152C0 30.9338 1.04956 32.0013 2.25031 32.0013H21.7497C22.9492 32.0013 24 30.935 24 29.7152V9.14304L18.7497 5.33376L15 0Z" fill="#673AB7"/>
<path d="M8.99993 23.6186H17.9999V22.0954H8.99993V23.6186ZM8.99993 13.7139V15.2371H17.9999V13.7139H8.99993ZM7.64924 14.4768C7.64924 15.0861 7.19942 15.6954 6.44974 15.6954C5.70005 15.6954 5.25024 15.2384 5.25024 14.4768C5.25024 13.7152 5.70005 13.2582 6.44974 13.2582C7.19942 13.2582 7.64924 13.8662 7.64924 14.4768ZM7.64924 18.743C7.64924 19.3523 7.19942 19.9616 6.44974 19.9616C5.70005 19.9616 5.25024 19.5046 5.25024 18.743C5.25024 17.9814 5.70005 17.5245 6.44974 17.5245C7.19942 17.5245 7.64924 18.1338 7.64924 18.743ZM7.64924 22.857C7.64924 23.4662 7.19942 24.0755 6.44974 24.0755C5.70005 24.0755 5.25024 23.6186 5.25024 22.857C5.25024 22.0954 5.70005 21.6384 6.44974 21.6384C7.19942 21.6384 7.64924 22.2477 7.64924 22.857ZM8.99993 19.8093H17.9999V18.2848H8.99993V19.8093Z" fill="#F1F1F1"/>
<path d="M15.5997 8.53377L24 16.9152V9.14305L15.5997 8.53377Z" fill="url(#paint0_linear_14365_303)"/>
<path d="M15 0V6.85696C15 8.07552 16.0496 9.14304 17.2503 9.14304H24L15 0Z" fill="#B39DDB"/>
<path d="M2.25031 0C1.04956 0 0 1.06624 0 2.28608V2.4384C0 1.21856 1.04956 0.15232 2.25031 0.15232H15V0H2.25031Z" fill="white" fill-opacity="0.2"/>
<path d="M21.7497 31.8477H2.25031C1.04956 31.8477 0 30.7814 0 29.5616V29.7139C0 30.9325 1.04956 32 2.25031 32H21.7497C22.9492 32 24 30.9338 24 29.7139V29.5616C24 30.7814 22.9492 31.8477 21.7497 31.8477Z" fill="#311B92" fill-opacity="0.2"/>
<path d="M17.2491 9.14304C16.0496 9.14304 14.9988 8.0768 14.9988 6.85696V7.00928C14.9988 8.22784 16.0483 9.29536 17.2491 9.29536H23.9988V9.14304H17.2491Z" fill="#311B92" fill-opacity="0.1"/>
<path d="M15 0H2.25031C1.04956 0 0 1.06624 0 2.28608V29.7152C0 30.9338 1.04956 32.0013 2.25031 32.0013H21.7497C22.9492 32.0013 24 30.935 24 29.7152V9.14304L15 0Z" fill="url(#paint1_radial_14365_303)"/>
</g>
<defs>
<linearGradient id="paint0_linear_14365_303" x1="19.7993" y1="9.20082" x2="19.7993" y2="16.9473" gradientUnits="userSpaceOnUse">
<stop stop-color="#311B92" stop-opacity="0.2"/>
<stop offset="1" stop-color="#311B92" stop-opacity="0.02"/>
</linearGradient>
<radialGradient id="paint1_radial_14365_303" cx="0" cy="0" r="1" gradientUnits="userSpaceOnUse" gradientTransform="translate(0.759274 0.85402) scale(309.57 314.488)">
<stop stop-color="white" stop-opacity="0.1"/>
<stop offset="1" stop-color="white" stop-opacity="0"/>
</radialGradient>
<clipPath id="clip0_14365_303">
<rect width="24" height="32" fill="white"/>
</clipPath>
</defs>
</svg>
