<svg width="30" height="27" viewBox="0 0 30 27" fill="none" xmlns="http://www.w3.org/2000/svg">
<g clip-path="url(#clip0_14365_223)">
<path d="M20.431 17.8876H9.60155L4.96423 25.9256C5.52211 26.2071 6.15563 26.3875 6.56537 26.3875C10.8254 26.3875 19.5195 26.325 23.8353 26.325C24.2791 26.325 24.6945 26.1749 25.0671 25.9397L20.431 17.8876Z" fill="#4185F3"/>
<path d="M4.96429 25.9259L9.60161 17.8879H0.204672C0.199944 18.4465 0.400087 18.9575 0.713696 19.5405C1.58739 21.1625 3.06561 23.7553 3.93394 25.1096C4.14796 25.4433 4.9977 25.9428 4.96429 25.9259Z" fill="#1767D1"/>
<path d="M20.4312 17.8876L25.0688 25.9384C25.6698 25.5593 26.1596 24.9588 26.4777 24.4058C27.1957 23.1589 28.4098 21.0824 29.2472 19.6766C29.6365 19.0229 29.7877 18.4358 29.7783 17.8869L20.4312 17.8876Z" fill="#E94235"/>
<path d="M9.60273 17.8882L15.0119 8.55656L10.1776 0.558594C9.65474 0.899818 9.20749 1.36302 9.00451 1.71582C6.89435 5.38828 2.64344 12.9149 0.505853 16.6349C0.286818 17.0155 0.181947 17.4504 0.20359 17.8882H9.60273Z" fill="#30A753"/>
<path d="M20.4308 17.8882L15.0118 8.55656L19.7135 0.567657C20.2364 0.909194 20.8103 1.36301 21.0133 1.71612C23.1234 5.38827 27.3744 12.9149 29.5129 16.6349C29.7335 17.0174 29.8 17.4503 29.7786 17.8882H20.4308Z" fill="#F9BC00"/>
<path d="M10.1769 0.559844L15.0118 8.55656L19.7134 0.567663C19.2281 0.286177 18.5406 0.119474 17.875 0.0985189C16.0229 0.0372174 13.0205 0.0125091 11.4045 0.0822552C11.0061 0.0994572 10.1819 0.556404 10.1769 0.559844Z" fill="#0F8038"/>
</g>
<defs>
<clipPath id="clip0_14365_223">
<rect width="29.6" height="26.4" fill="white" transform="translate(0.199951)"/>
</clipPath>
</defs>
</svg>
