<svg width="24" height="32" viewBox="0 0 24 32" fill="none" xmlns="http://www.w3.org/2000/svg">
<g clip-path="url(#clip0_14365_264)">
<path d="M15.5863 8.12799H23.5998L15.5863 0.00177002V8.12799Z" fill="#188038"/>
<path d="M15.5866 8.12798V0.00177002H2.16933C1.18884 0.00177002 0.400024 0.801683 0.400024 1.79597V30.2041C0.400024 31.1984 1.18884 31.9983 2.16933 31.9983H21.8307C22.8112 31.9983 23.6 31.1984 23.6 30.2041V8.12798H15.5866Z" fill="#34A853"/>
<path d="M4.82312 12.5536V23.5506H19.1766V12.5536H4.82312ZM11.1115 21.7564H6.59242V18.9455H11.1115V21.7564ZM11.1115 17.1588H6.59242V14.3478H11.1115V17.1588ZM17.4073 21.7564H12.8882V18.9455H17.4073V21.7564ZM17.4073 17.1588H12.8882V14.3478H17.4073V17.1588Z" fill="white"/>
</g>
<defs>
<clipPath id="clip0_14365_264">
<rect width="23.2" height="32" fill="white" transform="translate(0.400024)"/>
</clipPath>
</defs>
</svg>
