<svg width="26" height="25" viewBox="0 0 26 25" fill="none" xmlns="http://www.w3.org/2000/svg">
<g clip-path="url(#clip0_14365_283)">
<path d="M25.8 12.4C25.8 19.2483 20.0639 24.7943 12.9941 24.7943C5.9243 24.7943 0.199951 19.2483 0.199951 12.4C0.199951 5.55169 5.93016 0 13 0C20.0697 0 25.8 5.55169 25.8 12.4Z" fill="#F5F5F5"/>
<path d="M10.943 0.437387C10.3208 0.443049 9.65318 0.503917 8.96216 0.631314C3.86734 2.27474 0.199951 6.92049 0.199951 12.4C0.199951 19.2483 5.93016 24.8 13 24.8C20.0697 24.8 25.8 19.2412 25.8 12.3943C25.8 11.269 25.636 10.1804 25.3476 9.14145C24.3535 9.33538 23.2218 9.35378 22.3405 8.49739C20.3655 6.58077 17.3715 0.413323 10.943 0.437387Z" fill="#C6E2FF"/>
<path d="M8.60347 2.43185C6.9623 2.44459 5.08102 2.95418 3.61553 3.96487C1.49562 6.17875 0.199951 9.14003 0.199951 12.3943C0.199951 19.2426 5.93016 24.7943 13 24.7943C20.0697 24.7943 25.8 19.2426 25.8 12.3943C25.8 12.2966 25.7941 12.2004 25.7941 12.1084C24.1646 13.4036 21.3215 13.3427 19.6671 11.7064C16.5912 8.57523 14.8988 3.7582 10.0119 2.57199C9.57852 2.4814 9.10564 2.43185 8.60347 2.43185Z" fill="#98C3FF"/>
<path d="M5.6842 7.22482C2.7415 7.22482 0.734321 8.95743 0.22484 11.6639C0.213127 11.9074 0.199951 12.1509 0.199951 12.3943C0.199951 19.2426 5.93016 24.7943 13 24.7943C19.1079 24.7943 24.2144 20.6525 25.491 15.1121C23.6288 18.1767 19.673 19.0289 15.8607 15.9034C11.3017 11.6766 11.1187 7.41309 5.6842 7.22482Z" fill="#4F8EF5"/>
<path d="M4.14401 13.4758C2.4838 13.5862 1.23791 14.972 1.30087 17.4166C3.28755 21.7651 7.77334 24.8 12.9999 24.8C17.1065 24.8 20.7549 22.9272 23.0944 20.0198C20.8047 21.8316 16.1447 22.8296 11.798 19.4719C8.60344 16.6083 7.48932 13.4036 4.14401 13.4758Z" fill="#2D65DC"/>
</g>
<defs>
<clipPath id="clip0_14365_283">
<rect width="25.6" height="24.8" fill="white" transform="translate(0.199951)"/>
</clipPath>
</defs>
</svg>
