<svg width="22" height="29" viewBox="0 0 22 29" fill="none" xmlns="http://www.w3.org/2000/svg">
<mask id="mask0_14365_243" style="mask-type:luminance" maskUnits="userSpaceOnUse" x="0" y="0" width="22" height="29">
<path d="M0.883423 10.1168C0.883423 15.4015 3.90327 18.0438 6.69662 21.7431C9.48997 25.4425 9.71646 27.2544 10.0184 28.0093C10.3204 28.7643 10.4714 28.9908 10.9999 28.9908C11.5284 28.9908 11.7549 28.7643 11.9813 28.0093C12.2078 27.2544 12.5098 25.4425 15.3032 21.7431C18.0965 18.0438 21.1164 15.4015 21.1164 10.1923C21.1364 7.5092 20.0898 4.92808 18.2067 3.01671C17.2743 2.0703 16.1646 1.3168 14.9411 0.799243C13.7175 0.281683 12.4039 0.010196 11.0754 0.000281721C9.74688 -0.00963256 8.42942 0.242221 7.19824 0.741461C5.96706 1.2407 4.84627 1.97755 3.89985 2.90994C1.98849 4.79299 0.903446 7.3582 0.883423 10.0413M7.1496 10.0413C7.16949 9.02683 7.589 8.06126 8.31692 7.35444C9.04484 6.64762 10.0223 6.25669 11.0369 6.26664C12.0515 6.27659 13.0211 6.68661 13.735 7.40756C14.449 8.12852 14.8495 9.10213 14.8495 10.1168C14.8495 11.1314 14.449 12.105 13.735 12.8259C13.0211 13.5469 12.0515 13.9569 11.0369 13.9669C10.0223 13.9768 9.04484 13.5859 8.31692 12.8791C7.589 12.1723 7.16949 11.2067 7.1496 10.1923" fill="white"/>
</mask>
<g mask="url(#mask0_14365_243)">
<path d="M-0.475464 23.7816L10.9999 10.1168L-0.475464 23.7816Z" fill="white"/>
<path d="M-0.475464 23.7816L10.9999 10.1168" stroke="#FBBC04" stroke-width="11.9166"/>
<path d="M10.9999 10.1167L20.2104 -0.8302L10.9999 10.1167Z" fill="white"/>
<path d="M10.9999 10.1167L20.2104 -0.8302" stroke="#4285F4" stroke-width="11.9166"/>
<path d="M5.94165 29.8212L24.2872 7.92737L5.94165 29.8212Z" fill="white"/>
<path d="M5.94165 29.8212L24.2872 7.92737" stroke="#34A853" stroke-width="11.9166"/>
<path d="M10.9244 4.22804L4.96021 -0.8302L10.9244 4.22804Z" fill="white"/>
<path d="M10.9244 4.22804L4.96021 -0.8302" stroke="#1A73E8" stroke-width="11.9166"/>
<path d="M-2.58936 12.6836L4.28079 4.45453L-2.58936 12.6836Z" fill="white"/>
<path d="M-2.58936 12.6836L4.28079 4.45453" stroke="#EA4335" stroke-width="11.9166"/>
</g>
</svg>
