<svg width="28" height="28" viewBox="0 0 28 28" fill="none" xmlns="http://www.w3.org/2000/svg">
<path d="M0 21.5385H6.64103V6.64103H21.5385V0H3.32051C1.10684 0 0 1.04701 0 3.14103" fill="#4285F4"/>
<path d="M21.3589 0V6.82051H27.9999V3.14103C27.9999 1.04701 26.9529 0 24.8589 0" fill="#1967D2"/>
<path d="M0 21.3589V24.8589C0 26.953 1.04701 28 3.14103 28H6.82051V21.3589" fill="#188038"/>
<path d="M22.2565 21.3589H6.64111V28H21.3591" fill="#34A853"/>
<path d="M21.3589 21.4487V6.64105H27.9999V21.359" fill="#FBBC04"/>
<path d="M21.3589 28V21.3589H27.9999" fill="#EA4335"/>
<path d="M9.33325 11.5769C9.42691 11.2171 9.63353 10.8881 9.92962 10.6273C10.2257 10.3665 10.5994 10.1844 11.0081 10.1016C11.4169 10.0189 11.8444 10.0389 12.2419 10.1593C12.6394 10.2797 12.9911 10.4958 13.2569 10.7828C13.5227 11.0699 13.692 11.4165 13.7455 11.7832C13.799 12.1499 13.7345 12.5219 13.5595 12.8571C13.3845 13.1923 13.1059 13.4771 12.7554 13.6791C12.4049 13.8811 11.9966 13.9923 11.5768 14M11.5768 14H10.7691M11.5768 14C11.9955 14.0117 12.4025 14.1263 12.7519 14.3308C13.1014 14.5353 13.3792 14.8215 13.5541 15.157C13.7289 15.4926 13.7938 15.8641 13.7413 16.2295C13.6889 16.595 13.5212 16.9397 13.2572 17.2248C12.9933 17.5099 12.6436 17.7239 12.2478 17.8426C11.8519 17.9613 11.4257 17.9801 11.0174 17.8966C10.6091 17.8132 10.235 17.631 9.93733 17.3706C9.63969 17.1101 9.43044 16.7819 9.33325 16.4231M15.2563 11.7564L17.6794 10.0513H18.0384V18.6667" stroke="#4285F4" stroke-width="1.69231"/>
</svg>
