<svg width="18" height="20" viewBox="0 0 18 20" fill="none" xmlns="http://www.w3.org/2000/svg">
<g clip-path="url(#clip0_14213_1163)">
<path d="M10.25 3.125C10.25 2.43359 9.69141 1.875 9 1.875C8.30859 1.875 7.75 2.43359 7.75 3.125V8.75H2.125C1.43359 8.75 0.875 9.30859 0.875 10C0.875 10.6914 1.43359 11.25 2.125 11.25H7.75V16.875C7.75 17.5664 8.30859 18.125 9 18.125C9.69141 18.125 10.25 17.5664 10.25 16.875V11.25H15.875C16.5664 11.25 17.125 10.6914 17.125 10C17.125 9.30859 16.5664 8.75 15.875 8.75H10.25V3.125Z" fill="#4B5563"/>
</g>
<defs>
<clipPath id="clip0_14213_1163">
<path d="M0.25 0H17.75V20H0.25V0Z" fill="white"/>
</clipPath>
</defs>
</svg>
